<svg width="300" height="400" viewBox="0 0 300 400" fill="none" xmlns="http://www.w3.org/2000/svg">
  <rect width="300" height="400" fill="#F3F4F6"/>
  <path d="M100 150C100 162.733 89.733 173 77 173C64.267 173 54 162.733 54 150C54 137.267 64.267 127 77 127C89.733 127 100 137.267 100 150Z" fill="#E5E7EB"/>
  <path d="M246 150C246 162.733 235.733 173 223 173C210.267 173 200 162.733 200 150C200 137.267 210.267 127 223 127C235.733 127 246 137.267 246 150Z" fill="#E5E7EB"/>
  <rect x="50" y="220" width="200" height="8" rx="4" fill="#E5E7EB"/>
  <rect x="75" y="240" width="150" height="6" rx="3" fill="#E5E7EB"/>
  <rect x="100" y="260" width="100" height="6" rx="3" fill="#E5E7EB"/>
  <text x="150" y="320" text-anchor="middle" font-family="Arial" font-size="14" fill="#6B7280">eBook Cover</text>
</svg>
